<?xml version="1.0" encoding="UTF-8" standalone="no"?>
<!-- Created with Inkscape (http://www.inkscape.org/) -->

<svg
   xmlns:dc="http://purl.org/dc/elements/1.1/"
   xmlns:cc="http://creativecommons.org/ns#"
   xmlns:rdf="http://www.w3.org/1999/02/22-rdf-syntax-ns#"
   xmlns:svg="http://www.w3.org/2000/svg"
   xmlns="http://www.w3.org/2000/svg"
   xmlns:sodipodi="http://sodipodi.sourceforge.net/DTD/sodipodi-0.dtd"
   xmlns:inkscape="http://www.inkscape.org/namespaces/inkscape"
   version="1.1"
   id="svg3680"
   width="512"
   height="256"
   viewBox="0 0 512 256"
   sodipodi:docname="GTHubNoBackground.svg"
   inkscape:version="0.92.1 r15371">
  <metadata
     id="metadata3686">
    <rdf:RDF>
      <cc:Work
         rdf:about="">
        <dc:format>image/svg+xml</dc:format>
        <dc:type
           rdf:resource="http://purl.org/dc/dcmitype/StillImage" />
        <dc:title></dc:title>
      </cc:Work>
    </rdf:RDF>
  </metadata>
  <defs
     id="defs3684">
    <filter
       inkscape:collect="always"
       style="color-interpolation-filters:sRGB"
       id="filter5086"
       x="-0.041340638"
       width="1.0826813"
       y="-0.04027332"
       height="1.0805466">
      <feGaussianBlur
         inkscape:collect="always"
         stdDeviation="2.9752561"
         id="feGaussianBlur5088" />
    </filter>
  </defs>
  <sodipodi:namedview
     pagecolor="#ffffff"
     bordercolor="#666666"
     borderopacity="1"
     objecttolerance="10"
     gridtolerance="10"
     guidetolerance="10"
     inkscape:pageopacity="0"
     inkscape:pageshadow="2"
     inkscape:window-width="1920"
     inkscape:window-height="1027"
     id="namedview3682"
     showgrid="false"
     showguides="false"
     inkscape:zoom="0.70710678"
     inkscape:cx="-89.100797"
     inkscape:cy="136.67272"
     inkscape:window-x="-8"
     inkscape:window-y="-8"
     inkscape:window-maximized="1"
     inkscape:current-layer="svg3680" />
  <rect
     style="opacity:1;fill:#1e2124;fill-opacity:1;stroke:none;stroke-width:1.42306912;stroke-opacity:1"
     id="rect5924"
     width="569.9281"
     height="272.94321"
     x="-623.66815"
     y="213.57359" />
  <path
     inkscape:connector-curvature="0"
     id="path4516"
     d="M 175.75715,207.58785 345.30233,57.6 358.56305,78.964491 197.43737,223.26917 Z"
     style="fill:#0855a2;fill-opacity:1;stroke:none;stroke-width:1px;stroke-linecap:butt;stroke-linejoin:miter;stroke-opacity:1"
     sodipodi:nodetypes="ccccc" />
  <path
     style="fill:#ff6c00;fill-opacity:1;stroke:none;stroke-width:1px;stroke-linecap:butt;stroke-linejoin:miter;stroke-opacity:1"
     d="M 159.86533,186.85482 327.88837,40.781395 345.30233,57.6 175.75715,207.58785 Z"
     id="path4514"
     inkscape:connector-curvature="0" />
  <path
     style="fill:#ffffff;stroke:none;stroke-width:1.01715076;stroke-opacity:1;fill-opacity:1"
     d="M 256.29688 8.625 A 119.97066 119.22649 0 0 0 136.32617 127.85156 A 119.97066 119.22649 0 0 0 256.29688 247.07812 A 119.97066 119.22649 0 0 0 376.26758 127.85156 A 119.97066 119.22649 0 0 0 256.29688 8.625 z M 256.37891 16.625 A 110.99629 110.7798 0 0 1 367.375 127.4043 A 110.99629 110.7798 0 0 1 256.37891 238.18359 A 110.99629 110.7798 0 0 1 145.38281 127.4043 A 110.99629 110.7798 0 0 1 256.37891 16.625 z "
     id="path3690" />
  <g
     id="g4532"
     transform="translate(7.9628)"
     style="fill:#000006;fill-opacity:1;filter:url(#filter5086);opacity:0.341">
    <path
       style="fill:#000006;fill-opacity:1;stroke:none;stroke-width:1px;stroke-linecap:butt;stroke-linejoin:miter;stroke-opacity:1"
       d="m 209.71163,78.809302 h 22.02791 L 236.8,58.12093 c 4.95657,-18.49816 -7.15278,-21.468672 -25.08527,-21.468672 -24.20097,0.448798 -28.71938,21.617509 -28.71938,21.617509 l -18.30698,80.595353 c 0,0 -1.67727,7.69883 -0.74418,11.38604 0.81216,3.20932 2.65082,6.40252 5.28372,8.40931 3.00837,2.29298 7.75379,3.14797 10.86511,3.27441 11.00489,0.44724 33.04186,-0.0744 33.04186,-0.0744 l 11.68372,-52.09303 h 17.63721 L 219.08837,212.7628 h 22.62326 l 5.73023,-24.78139 h 8.03721 l -5.95349,24.85581 h 10.41861 L 274.0093,152.7814 h -11.01395 l -5.13488,25.30232 h -7.9628 l 15.33024,-68.09302 h 20.50232 l 4.83721,-21.804654 h -87.44691 l -4.73597,20.893614 h 3.89402 c 0,0 -5.88594,22.43368 -6.59953,30.90337 0,0 -7.40773,0.87759 -7.00465,-1.48837 1.03499,-6.07498 2.65263,-15.9265 2.65263,-15.9265 0,0 12.58285,-55.61024 13.31954,-58.953827 0.53506,-2.428445 2.45992,-5.86807 4.89384,-5.630543 5.02892,0.490774 3.33172,5.770716 3.33172,5.770716 z"
       id="path4526"
       inkscape:connector-curvature="0"
       sodipodi:nodetypes="ccccccssscccccccccccccccccccsscsscc" />
    <path
       style="fill:#000006;fill-opacity:1;stroke:none;stroke-width:1px;stroke-linecap:butt;stroke-linejoin:miter;stroke-opacity:1"
       d="m 279.44186,152.93023 11.31163,0.14884 c 0,0 -10.24734,43.74743 -10.60465,46.54884 -0.16313,1.27897 -0.0458,2.99622 1.2279,3.2 1.53698,0.2459 2.60494,-2.28715 2.82791,-3.23721 0.11545,-0.49189 10.08372,-46.51163 10.08372,-46.51163 h 12.27907 L 294.4,203.86977 c 0,0 -2.12516,4.5058 -4.05581,5.91628 -3.20013,2.33793 -7.42307,3.46264 -11.38605,3.42325 -3.59666,-0.0358 -8.14052,-0.41274 -10.26977,-3.31163 -1.79894,-2.44918 -0.0744,-9.11627 -0.0744,-9.11627 z"
       id="path4528"
       inkscape:connector-curvature="0"
       sodipodi:nodetypes="ccssscccssscc" />
    <path
       style="fill:#000006;fill-opacity:1;stroke:none;stroke-width:1px;stroke-linecap:butt;stroke-linejoin:miter;stroke-opacity:1"
       d="m 311.66602,152.78125 -13.54493,59.83203 c 0,0 12.85269,2.51773 18.71875,0.6582 3.53285,-1.11991 6.22519,-2.78009 8.2461,-5.88671 3.39651,-5.22124 4.33145,-15.9421 4.51367,-19.17969 0.2224,-3.95153 -4.26629,-4.89089 -2.97656,-4.83789 6.34556,0.26088 7.78532,-12.89271 9.46289,-19.44141 1.34136,-5.00602 -1.99339,-11.14453 -5.89063,-11.14453 z m 10.32812,11.20313 c 0.22586,0.005 0.45027,0.05 0.65039,0.13671 1.00813,0.43702 0.55851,1.5047 0.45703,2.27149 -0.27583,2.08436 -1.00682,5.01624 -2.51758,8.43359 0,0 -2.45085,0.44823 -2.30664,-0.29687 0,0 1.36412,-5.673 2.20508,-9.58008 0.13769,-0.63969 0.83416,-0.98078 1.51172,-0.96484 z m -5.41992,23.99609 c 0.22585,0.005 0.45027,0.05 0.65039,0.13672 1.00813,0.43702 0.55851,1.50469 0.45703,2.27148 -0.27583,2.08436 -1.374,8.06898 -2.88476,11.48633 0,0 -2.45281,0.44627 -2.3086,-0.29883 0,0 1.73326,-8.72378 2.57422,-12.63086 0.13769,-0.63969 0.83415,-0.98077 1.51172,-0.96484 z"
       id="path4530"
       inkscape:connector-curvature="0" />
  </g>
  <g
     id="g4524">
    <path
       sodipodi:nodetypes="ccccccssscccccccccccccccccccsscsscc"
       inkscape:connector-curvature="0"
       id="path4500"
       d="m 209.71163,78.809302 h 22.02791 L 236.8,58.12093 c 4.95657,-18.49816 -7.15278,-21.468672 -25.08527,-21.468672 -24.20097,0.448798 -28.71938,21.617509 -28.71938,21.617509 l -18.30698,80.595353 c 0,0 -1.67727,7.69883 -0.74418,11.38604 0.81216,3.20932 2.65082,6.40252 5.28372,8.40931 3.00837,2.29298 7.75379,3.14797 10.86511,3.27441 11.00489,0.44724 33.04186,-0.0744 33.04186,-0.0744 l 11.68372,-52.09303 h 17.63721 L 219.08837,212.7628 h 22.62326 l 5.73023,-24.78139 h 8.03721 l -5.95349,24.85581 h 10.41861 L 274.0093,152.7814 h -11.01395 l -5.13488,25.30232 h -7.9628 l 15.33024,-68.09302 h 20.50232 l 4.83721,-21.804654 h -87.44691 l -4.73597,20.893614 h 3.89402 c 0,0 -5.88594,22.43368 -6.59953,30.90337 0,0 -7.40773,0.87759 -7.00465,-1.48837 1.03499,-6.07498 2.65263,-15.9265 2.65263,-15.9265 0,0 12.58285,-55.61024 13.31954,-58.953827 0.53506,-2.428445 2.45992,-5.86807 4.89384,-5.630543 5.02892,0.490774 3.33172,5.770716 3.33172,5.770716 z"
       style="fill:#ffffff;stroke:none;stroke-width:1px;stroke-linecap:butt;stroke-linejoin:miter;stroke-opacity:1;fill-opacity:1" />
    <path
       sodipodi:nodetypes="ccssscccssscc"
       inkscape:connector-curvature="0"
       id="path4502"
       d="m 279.44186,152.93023 11.31163,0.14884 c 0,0 -10.24734,43.74743 -10.60465,46.54884 -0.16313,1.27897 -0.0458,2.99622 1.2279,3.2 1.53698,0.2459 2.60494,-2.28715 2.82791,-3.23721 0.11545,-0.49189 10.08372,-46.51163 10.08372,-46.51163 h 12.27907 L 294.4,203.86977 c 0,0 -2.12516,4.5058 -4.05581,5.91628 -3.20013,2.33793 -7.42307,3.46264 -11.38605,3.42325 -3.59666,-0.0358 -8.14052,-0.41274 -10.26977,-3.31163 -1.79894,-2.44918 -0.0744,-9.11627 -0.0744,-9.11627 z"
       style="fill:#ffffff;stroke:none;stroke-width:1px;stroke-linecap:butt;stroke-linejoin:miter;stroke-opacity:1;fill-opacity:1" />
    <path
       id="path4504"
       d="M 311.66602 152.78125 L 298.12109 212.61328 C 298.12109 212.61328 310.97378 215.13101 316.83984 213.27148 C 320.37269 212.15157 323.06503 210.49139 325.08594 207.38477 C 328.48245 202.16353 329.41739 191.44267 329.59961 188.20508 C 329.82201 184.25355 325.33332 183.31419 326.62305 183.36719 C 332.96861 183.62807 334.40837 170.47448 336.08594 163.92578 C 337.4273 158.91976 334.09255 152.78125 330.19531 152.78125 L 311.66602 152.78125 z M 321.99414 163.98438 C 322.22 163.98969 322.44441 164.03434 322.64453 164.12109 C 323.65266 164.55811 323.20304 165.62579 323.10156 166.39258 C 322.82573 168.47694 322.09474 171.40882 320.58398 174.82617 C 320.58398 174.82617 318.13313 175.2744 318.27734 174.5293 C 318.27734 174.5293 319.64146 168.8563 320.48242 164.94922 C 320.62011 164.30953 321.31658 163.96844 321.99414 163.98438 z M 316.57422 187.98047 C 316.80007 187.98578 317.02449 188.03044 317.22461 188.11719 C 318.23274 188.55421 317.78312 189.62188 317.68164 190.38867 C 317.40581 192.47303 316.30764 198.45765 314.79688 201.875 C 314.79688 201.875 312.34407 202.32127 312.48828 201.57617 C 312.48828 201.57617 314.22154 192.85239 315.0625 188.94531 C 315.20019 188.30562 315.89665 187.96454 316.57422 187.98047 z "
       style="fill:#ffffff;stroke:none;stroke-width:1px;stroke-linecap:butt;stroke-linejoin:miter;stroke-opacity:1;fill-opacity:1" />
  </g>
</svg>
