<?xml version="1.0" encoding="UTF-8"?>
<!-- Generator: Adobe Illustrator 23.0.0, SVG Export Plug-In . SVG Version: 6.00 Build 0)  -->
<svg version="1.1" xmlns="http://www.w3.org/2000/svg" xmlns:xlink="http://www.w3.org/1999/xlink" x="0px" y="0px" viewBox="0 0 522.73 91.3" style="enable-background:new 0 0 522.73 91.3;" xml:space="preserve">
<style type="text/css">
	.st0{fill:#212121;}
	.st1{fill:#F36E21;}
	.st2{fill:#4582C3;}
	.st3{fill:#FFFFFF;}
</style>
<g id="Layer_2">
</g>
<g id="Layer_1">
	<g>
		<g>
			<path class="st0" d="M84.64,56.39C73.61,100.6,0.23,97.27,0,44.9c0.23-54.09,77.86-56.5,85.44-7.58H54.55     c-5.63-10.79-23.54-8.04-23.66,7.81c0,11.14,6.66,15.04,13.32,15.04c3.45,0,8.27-1.49,9.76-4.82H41.46V41.8h44.33     C85.78,47.08,85.9,51.1,84.64,56.39z"/>
			<path class="st0" d="M109.9,84.87V29.63H92.79V4.48h65.57v25.15h-17.11v55.24H109.9z"/>
			<path class="st0" d="M188.68,91.3h-28.13L191.66,0h28.13L188.68,91.3z"/>
			<path class="st1" d="M228.41,91.3h-28.13L231.39,0h28.13L228.41,91.3z"/>
			<path class="st2" d="M268.14,91.3h-28.13L271.13,0h28.13L268.14,91.3z"/>
			<path class="st0" d="M322.46,30.43c4.71-6.66,11.25-8.61,19.06-8.61c18.95,0,27.1,11.83,27.1,29.63v33.42h-11.25v-33.3     c0-11.6-2.99-19.52-16.19-19.75c-12.06-0.23-18.72,8.38-18.72,19.29v33.76h-11.14c0-26.87,0-53.63,0-80.39h11.14V30.43z"/>
			<path class="st0" d="M430.17,84.87v-8.15c-4.59,6.78-11.6,9.07-19.64,9.07c-18.83,0-26.99-11.83-26.99-29.63V22.16h11.25v33.99     c0,11.48,2.87,19.41,16.08,19.64c12.17,0.23,18.72-8.27,18.72-19.29V22.16h11.25v62.7H430.17z"/>
			<path class="st0" d="M469.91,30.78c5.4-7.35,13.21-9.07,20.9-9.07c21.01,0,31.92,15.04,31.92,31.81     c0,17.11-10.45,32.38-32.16,32.38c-7.69-0.11-16.19-2.64-20.67-9.42v8.38h-11.25V4.48h11.25V30.78z M490.12,75.91     c14.24,0.34,21.47-11.02,21.36-22.39c-0.11-10.91-6.89-21.7-20.44-21.93c-10.57-0.11-21.13,7.23-21.13,22.16     C469.91,68.33,479.9,75.68,490.12,75.91z"/>
		</g>
	</g>
</g>
</svg>